<?xml version="1.0" encoding="utf-8"?>
<!-- Generator: Adobe Illustrator 22.0.1, SVG Export Plug-In . SVG Version: 6.00 Build 0)  -->
<svg version="1.1" id="Layer_1" xmlns="http://www.w3.org/2000/svg" xmlns:xlink="http://www.w3.org/1999/xlink" x="0px" y="0px"
	 viewBox="0 0 16 16" style="enable-background:new 0 0 16 16;" xml:space="preserve">
<style type="text/css">
	.st0{fill:#555555;}
</style>
<path class="st0" d="M13.6,2.5C12.2,1.1,10.3,1,8,1S3.8,1.1,2.4,2.5C1.1,3.8,1,5.7,1,8s0.1,4.2,1.4,5.6C3.8,14.9,5.7,15,8,15
	s4.2-0.1,5.6-1.4C14.9,12.2,15,10.3,15,8S14.9,3.8,13.6,2.5z M7.5,10.8C7.5,10.9,7.4,10.9,7.5,10.8l-1.3,0.1c0,0-0.1,0-0.1-0.1V7.6
	c0,0,0-0.1,0.1-0.1h1.3c0,0,0.1,0,0.1,0.1v3.1H7.5z M9.9,10.8C9.9,10.9,9.9,10.9,9.9,10.8l-1.3,0.1c0,0-0.1,0-0.1-0.1V8
	c0-0.5,0-0.9-0.2-1.3C8.1,6.6,7.6,6.6,7.3,6.5H5.1c0,0-0.1,0-0.1,0.1v4.2c0,0,0,0.1-0.1,0.1H3.7c0,0-0.1,0-0.1-0.1V5.4
	c0,0,0-0.1,0.1-0.1h3.4l0,0c0.9,0,1.9,0,2.2,0.5C9.8,6.3,9.8,7.2,9.8,8v2.8H9.9z M12.3,10.8C12.3,10.9,12.3,10.9,12.3,10.8L11,10.9
	c0,0-0.1,0-0.1-0.1V5.4c0,0,0-0.1,0.1-0.1h1.2l0,0c0,0,0.1,0,0.1,0.1V10.8z"/>
</svg>
