<svg xmlns="http://www.w3.org/2000/svg" xmlns:xlink="http://www.w3.org/1999/xlink" x="0px" y="0px"
	 viewBox="0 0 16 16" style="enable-background:new 0 0 16 16;" xml:space="preserve">
<style type="text/css">
	.st0{fill:#555555;}
</style>
<path class="st0" d="M8,1C4.1,1,1,4.1,1,8s3.1,7,7,7s7-3.1,7-7S11.9,1,8,1z M9.5,3.4c0.2-0.5,0.8-0.6,1.3-0.3
	c0.5,0.2,0.7,0.8,0.3,1.3C10.9,4.9,10.3,5,9.9,4.7C9.5,4.4,9.3,3.8,9.5,3.4z M3.2,8.9C2.8,8.9,2.3,8.5,2.3,8c0-0.5,0.5-0.9,0.9-0.9
	l0,0c0.5,0,0.9,0.5,0.9,0.9C4.1,8.5,3.8,8.9,3.2,8.9z M4,9c0.3-0.2,0.5-0.6,0.5-1c0-0.5-0.2-0.8-0.5-1.1C4.3,6,4.8,5.1,5.7,4.6
	l0.7,1.2C5.7,6.2,5.2,7.1,5.2,8s0.5,1.8,1.2,2.2l-0.7,1.2C5,10.8,4.3,10,4,9z M10.8,12.9c-0.5,0.2-1,0.1-1.3-0.4
	c-0.2-0.5-0.1-1,0.4-1.3c0.5-0.2,1.1-0.1,1.3,0.4C11.5,12.1,11.3,12.7,10.8,12.9z M10.8,10.9c-0.4-0.1-0.8-0.1-1.2,0.1
	C9.4,11.1,9.2,11.5,9,12c-0.4,0.1-0.7,0.1-1,0.1c-0.7,0-1.3-0.1-1.8-0.5l0.7-1.2c0.4,0.1,0.7,0.2,1.2,0.2c1.4,0,2.6-1,2.7-2.4h1.3
	C12,9.3,11.5,10.2,10.8,10.9z M10.7,7.8C10.6,6.4,9.4,5.3,8,5.3c-0.5,0-0.8,0.1-1.2,0.2L6.1,4.4c0.6-0.2,1.2-0.5,1.8-0.5
	c0.4,0,0.7,0,1.1,0.1C9.2,4.5,9.4,4.9,9.8,5c0.4,0.2,0.8,0.2,1.2,0.1c0.7,0.7,1.2,1.6,1.2,2.7H10.7z"/>
</svg>
