<svg xmlns="http://www.w3.org/2000/svg" xmlns:xlink="http://www.w3.org/1999/xlink" x="0px" y="0px"
	 viewBox="0 0 16 16" style="enable-background:new 0 0 16 16;" xml:space="preserve">
<style type="text/css">
	.st0{fill:#0074D9;}
</style>
<path class="st0" d="M8,1C4.1,1,1,4.1,1,8s3.1,7,7,7s7-3.1,7-7S11.9,1,8,1z M5.4,10.3L3.2,8.1c-0.1,0-0.1-0.1,0-0.2l2.2-2.2
	c0,0,0.1,0,0.2,0l0.7,0.7c0.1,0.1,0.1,0.1,0,0.2L5,7.9C4.9,8,4.9,8.1,5,8.1l1.3,1.3c0.1,0.1,0.1,0.1,0,0.2l-0.6,0.7
	C5.6,10.5,5.4,10.5,5.4,10.3z M9.3,5.8l-1.9,6.5c0,0,0,0-0.1,0l-1-0.3c0,0,0,0,0-0.1l1.9-6.5c0,0,0,0,0.1,0L9.3,5.8L9.3,5.8z
	 M9.4,5.2l-1-0.3c0,0,0,0,0-0.1l0.4-1c0,0,0,0,0.1,0l1,0.4c0,0,0,0,0,0.1L9.4,5.2C9.5,5.2,9.4,5.2,9.4,5.2z M12.8,8.1l-2.2,2.2
	c-0.1,0.1-0.1,0.1-0.2,0L9.8,9.8c-0.1-0.1-0.1-0.1,0-0.2L11,8.2c0.1-0.1,0.1-0.1,0-0.2L9.8,6.6c-0.1-0.1-0.1-0.1,0-0.2l0.6-0.7
	c0.1,0,0.2,0,0.2,0l2.2,2.2C12.9,8,12.9,8.1,12.8,8.1z"/>
</svg>
