<svg xmlns="http://www.w3.org/2000/svg" xmlns:xlink="http://www.w3.org/1999/xlink" x="0px" y="0px"
	 viewBox="0 0 16 16" style="enable-background:new 0 0 16 16;" xml:space="preserve">
<style type="text/css">
	.st0{fill:#555555;}
</style>
<path class="st0" d="M8,1C4.1,1,1,4.1,1,8s3.1,7,7,7s7-3.1,7-7S11.9,1,8,1z M6.8,5.1c0-0.4,0.2-0.5,0.5-0.5c0.2,0,0.5,0.1,0.7,0.2
	C8.2,5,8.4,5.1,8.4,5.3c0,0.1,0,0.1-0.1,0.3C7.9,6.5,7.6,8.2,7.6,9.4c0,0.6,0.1,1,0.4,1c0,0,0.1,0.1,0.1,0.2c0,0.2-0.1,0.5-0.3,0.5
	c-0.9,0-1.3-1.9-1.3-2.9C6.4,6.7,6.5,6.1,6.8,5.1z M7.2,12.5c-0.6,0-0.8-0.4-0.8-0.6s0.1-0.6,0.2-0.5c1.2,0,3.9-0.7,3.7-2.6
	c0-0.6-0.6-0.7-1.2-0.7C8.8,8.4,8.6,8.1,8.6,7.9c0-0.1,0.1-0.2,0.2-0.2c0.7-0.4,1-0.7,1-1.4c0-1.2-0.9-2-2.1-2C6.2,4.3,5,5.3,5,6.8
	c0,0.8,0.4,1.5,0.9,1.3c0.1,0,0.3,0.2,0.3,0.6c0,0.5-0.2,0.8-0.9,0.8c-1.1,0-1.5-1.2-1.5-2.2c0-1.9,1.6-4,4.2-4s3.7,1,3.7,2.2
	c0,0.9-0.7,1.5-1.2,1.8c0.8,0,1.8,0.5,1.8,1.5C12.3,11.3,8.8,12.5,7.2,12.5z"/>
</svg>
